<?xml version="1.0" encoding="UTF-8" standalone="no"?>
<svg
   width="96"
   height="96"
   fill="#151502"
   viewBox="0 0 256 256"
   version="1.1"
   id="svg1"
   sodipodi:docname="coin-vertical-thin.svg"
   inkscape:version="1.3-beta (cedbd6c, 2023-05-28)"
   xmlns:inkscape="http://www.inkscape.org/namespaces/inkscape"
   xmlns:sodipodi="http://sodipodi.sourceforge.net/DTD/sodipodi-0.dtd"
   xmlns="http://www.w3.org/2000/svg"
   xmlns:svg="http://www.w3.org/2000/svg">
  <defs
     id="defs1" />
  <sodipodi:namedview
     id="namedview1"
     pagecolor="#ffffff"
     bordercolor="#000000"
     borderopacity="0.25"
     inkscape:showpageshadow="2"
     inkscape:pageopacity="0.0"
     inkscape:pagecheckerboard="0"
     inkscape:deskcolor="#d1d1d1"
     inkscape:zoom="2.4583333"
     inkscape:cx="-50.033898"
     inkscape:cy="48"
     inkscape:window-width="1312"
     inkscape:window-height="449"
     inkscape:window-x="0"
     inkscape:window-y="38"
     inkscape:window-maximized="0"
     inkscape:current-layer="svg1" />
  <path
     d="M 211.82966,58.1 C 197.95147,38.69 179.2061,28 159.05084,28 H 100.20339 C 80.048135,28 61.302769,38.69 47.485876,58.1 34.000001,76.84 26.644068,101.66 26.644068,128 c 0,26.34 7.355933,51.16 20.841808,69.9 13.816893,19.41 32.562259,30.1 52.717514,30.1 h 58.84745 c 20.15526,0 38.90063,-10.69 52.77882,-30.1 13.42458,-18.74 20.78051,-43.56 20.78051,-69.9 0,-26.34 -7.35593,-51.16 -20.78051,-69.9 z M 207.19542,188 h -42.68865 c 8.87616,-16.14 13.9395,-35.53 14.51571,-56 h 43.70622 c -0.613,20.77 -6.05639,40.28 -15.53328,56 z m -28.17294,-64 c -0.57621,-20.47 -5.63955,-39.86 -14.51571,-56 h 42.68865 c 9.48915,15.72 14.92028,35.23 15.53328,56 z M 159.05084,36 c 15.803,0 30.88266,8.51 42.71345,24 h -42.14921 c -0.4291,-0.63 -0.8582,-1.28 -1.29955,-1.9 -6.84101,-9.56 -20.19231,-17 -28.98265,-22.1 z M 55.896158,193.87 C 43.354294,176.34 36.451978,153 36.451978,128 c 0,-25 6.902316,-48.34 19.44418,-65.87 C 67.947627,45.28 83.677062,36 100.20339,36 c 16.52633,0 37.58909,9.28 49.64057,26.13 12.54186,17.53 19.44417,40.92 19.44417,65.87 0,24.95 -6.90231,48.34 -19.44417,65.87 C 137.79248,210.72 116.72972,220 100.20339,220 83.677062,220 67.947627,210.72 55.896158,193.87 Z M 159.05084,220 h -29.71796 c 8.79034,-5.09 22.14164,-12.54 28.98265,-22.1 0.44135,-0.62 0.87045,-1.27 1.29955,-1.9 h 42.14921 c -11.83079,15.49 -26.91045,24 -42.71345,24 z"
     id="path1"
     style="stroke-width:1.10725"
     sodipodi:nodetypes="csscscsscscccccccccccsccccscscscscscsccccs" />
</svg>
