<?xml version="1.0" encoding="UTF-8" standalone="no"?>
<svg
   width="96"
   height="96"
   fill="#151502"
   viewBox="0 0 256 256"
   version="1.1"
   id="svg1"
   sodipodi:docname="money-thin.svg"
   inkscape:version="1.3-beta (cedbd6c, 2023-05-28)"
   xmlns:inkscape="http://www.inkscape.org/namespaces/inkscape"
   xmlns:sodipodi="http://sodipodi.sourceforge.net/DTD/sodipodi-0.dtd"
   xmlns="http://www.w3.org/2000/svg"
   xmlns:svg="http://www.w3.org/2000/svg">
  <defs
     id="defs1" />
  <sodipodi:namedview
     id="namedview1"
     pagecolor="#ffffff"
     bordercolor="#000000"
     borderopacity="0.25"
     inkscape:showpageshadow="2"
     inkscape:pageopacity="0.0"
     inkscape:pagecheckerboard="0"
     inkscape:deskcolor="#d1d1d1"
     inkscape:zoom="2.4583333"
     inkscape:cx="-50.033898"
     inkscape:cy="48"
     inkscape:window-width="1480"
     inkscape:window-height="667"
     inkscape:window-x="0"
     inkscape:window-y="38"
     inkscape:window-maximized="0"
     inkscape:current-layer="svg1" />
  <path
     d="M 128,164 C 0,0 0,0 128,164 Z M 240,60 H 16 c -2.209139,0 -4,1.790861 -4,4 v 128 c 0,2.20914 1.790861,4 4,4 h 224 c 2.20914,0 4,-1.79086 4,-4 V 64 c 0,-2.209139 -1.79086,-4 -4,-4 z M 20,107.26 C 39.472332,102.67635 54.676353,87.472332 59.26,68 h 137.48 c 4.58365,19.472332 19.78767,34.67635 39.26,39.26 v 41.48 c -19.47233,4.58365 -34.67635,19.78767 -39.26,39.26 H 59.26 C 54.676353,168.52767 39.472332,153.32365 20,148.74 Z M 236,99 C 220.97112,94.773903 209.2261,83.028876 205,68 h 31 z M 51,68 C 46.773903,83.028876 35.028876,94.773903 20,99 V 68 Z m -31,89 c 15.028876,4.2261 26.773903,15.97112 31,31 H 20 Z m 185,31 c 4.2261,-15.02888 15.97112,-26.7739 31,-31 v 31 z"
     id="path1"
     sodipodi:nodetypes="sssssssssssccccccccccccccccccccccccc" />
</svg>
